<svg class="svgicon" id="svg149" preserveAspectRatio="xMidYMid meet" xmlns="http://www.w3.org/2000/svg" viewBox="0 0 128 128"><rect x="1.92" y="1.92" width="124.16" height="124.16" style="stroke: rgb(48, 48, 48); fill: none; stroke-alignment: inside; stroke-width: 3.84" rx="62.08" ry="62.08"></rect><g transform="scale(0.66) translate(32.96969696969697, 32.96969696969697)"><style> #svg149 path, #svg149 circle, #svg149 polygon, #svg149 rect { fill: rgb(48, 48, 48) } #svg149 defs &gt; path { fill: none }  #svg149 path[fill="none"], #svg149 circle[fill="none"], #svg149 polygon[fill="none"], #svg149 rect[fill="none"] { fill: none } </style><style type="text/css"> #svg149 .st0{fill:rgb(48, 48, 48);} </style><path class="st0" d="M68.25,17.25c-1.658,0-3,1.343-3,3v45h-45c-1.658,0-3,1.343-3,3c0,28.121,22.879,51,51,51s51-22.879,51-51 S96.371,17.25,68.25,17.25z"></path><path class="st0" d="M59.75,58.25v-48c0-0.828-0.672-1.5-1.5-1.5c-27.295,0-49.5,22.206-49.5,49.5c0,0.828,0.672,1.5,1.5,1.5h48 C59.078,59.75,59.75,59.078,59.75,58.25z"></path></g></svg>